<svg xmlns="http://www.w3.org/2000/svg" xmlns:xlink="http://www.w3.org/1999/xlink" width="500" zoomAndPan="magnify" viewBox="0 0 375 374.999991" height="500" preserveAspectRatio="xMidYMid meet" version="1.0"><defs><g/><clipPath id="bdf61698a0"><path d="M 174.792969 187.527344 L 200.292969 187.527344 L 200.292969 213 L 174.792969 213 Z M 174.792969 187.527344 " clip-rule="nonzero"/></clipPath><clipPath id="d6f31d8cf6"><path d="M 174.792969 204.71875 L 200.292969 204.71875 L 200.292969 230.195312 L 174.792969 230.195312 Z M 174.792969 204.71875 " clip-rule="nonzero"/></clipPath></defs><rect x="-37.5" width="450" fill="#ffffff" y="-37.499999" height="449.999989" fill-opacity="1"/><rect x="-37.5" width="450" fill="#000000" y="-37.499999" height="449.999989" fill-opacity="1"/><g fill="#ffffff" fill-opacity="1"><g transform="translate(77.332031, 203.8505)"><g><path d="M 5.046875 0 L 5.046875 -42 L 13.140625 -42 L 28.078125 -20.21875 L 42.953125 -42 L 51 -42 L 51 0 L 41.515625 0 L 41.515625 -25.265625 L 31.3125 -10.375 L 24.71875 -10.375 L 14.515625 -25.3125 L 14.515625 0 Z M 5.046875 0 "/></g></g></g><g fill="#ffffff" fill-opacity="1"><g transform="translate(133.371971, 203.8505)"><g><path d="M 20.046875 0.84375 C 16.554688 0.84375 13.484375 0.144531 10.828125 -1.25 C 8.171875 -2.65625 6.09375 -4.609375 4.59375 -7.109375 C 3.09375 -9.609375 2.34375 -12.5 2.34375 -15.78125 C 2.34375 -19.0625 3.09375 -21.941406 4.59375 -24.421875 C 6.09375 -26.898438 8.171875 -28.835938 10.828125 -30.234375 C 13.484375 -31.640625 16.554688 -32.34375 20.046875 -32.34375 C 23.523438 -32.34375 26.59375 -31.640625 29.25 -30.234375 C 31.90625 -28.835938 33.972656 -26.898438 35.453125 -24.421875 C 36.941406 -21.941406 37.6875 -19.0625 37.6875 -15.78125 C 37.6875 -12.5 36.941406 -9.609375 35.453125 -7.109375 C 33.972656 -4.609375 31.90625 -2.65625 29.25 -1.25 C 26.59375 0.144531 23.523438 0.84375 20.046875 0.84375 Z M 11.34375 -15.78125 C 11.34375 -13.21875 12.148438 -11.113281 13.765625 -9.46875 C 15.390625 -7.832031 17.484375 -7.015625 20.046875 -7.015625 C 22.597656 -7.015625 24.675781 -7.832031 26.28125 -9.46875 C 27.882812 -11.113281 28.6875 -13.21875 28.6875 -15.78125 C 28.6875 -18.382812 27.882812 -20.492188 26.28125 -22.109375 C 24.675781 -23.734375 22.597656 -24.546875 20.046875 -24.546875 C 17.484375 -24.546875 15.390625 -23.734375 13.765625 -22.109375 C 12.148438 -20.492188 11.34375 -18.382812 11.34375 -15.78125 Z M 11.34375 -15.78125 "/></g></g></g><g fill="#ffffff" fill-opacity="1"><g transform="translate(173.402338, 203.8505)"><g/></g></g><g fill="#ffffff" fill-opacity="1"><g transform="translate(165.92888, 203.8505)"><g><path d="M 4.5625 0 L 4.5625 -31.5 L 11.34375 -31.5 L 12.296875 -27.953125 C 13.578125 -29.441406 15.128906 -30.546875 16.953125 -31.265625 C 18.773438 -31.984375 20.722656 -32.34375 22.796875 -32.34375 C 26.921875 -32.34375 30.148438 -31.0625 32.484375 -28.5 C 34.828125 -25.9375 36 -22.476562 36 -18.125 L 36 0 L 26.875 0 L 26.875 -17.15625 C 26.875 -19.476562 26.320312 -21.289062 25.21875 -22.59375 C 24.125 -23.894531 22.597656 -24.546875 20.640625 -24.546875 C 18.554688 -24.546875 16.875 -23.820312 15.59375 -22.375 C 14.320312 -20.9375 13.6875 -18.976562 13.6875 -16.5 L 13.6875 0 Z M 4.5625 0 "/></g></g></g><g fill="#ffffff" fill-opacity="1"><g transform="translate(205.888842, 203.8505)"><g><path d="M 4.5625 0 L 4.5625 -44.40625 L 13.6875 -44.40625 L 13.6875 -20.15625 L 16.015625 -20.15625 C 17.941406 -20.15625 19.394531 -20.460938 20.375 -21.078125 C 21.351562 -21.703125 22.140625 -22.894531 22.734375 -24.65625 L 24.953125 -31.5 L 34.796875 -31.5 L 31.140625 -21.484375 C 30.140625 -18.679688 28.800781 -16.539062 27.125 -15.0625 L 36.1875 0 L 25.5625 0 L 18.59375 -12 L 13.6875 -12 L 13.6875 0 Z M 4.5625 0 "/></g></g></g><g fill="#ffffff" fill-opacity="1"><g transform="translate(243.628799, 203.8505)"><g><path d="M 19.4375 0.84375 C 16.082031 0.84375 13.113281 0.144531 10.53125 -1.25 C 7.945312 -2.65625 5.9375 -4.609375 4.5 -7.109375 C 3.0625 -9.609375 2.34375 -12.5 2.34375 -15.78125 C 2.34375 -19.0625 3.070312 -21.941406 4.53125 -24.421875 C 5.988281 -26.898438 8.003906 -28.835938 10.578125 -30.234375 C 13.160156 -31.640625 16.15625 -32.34375 19.5625 -32.34375 C 23.15625 -32.34375 26.257812 -31.539062 28.875 -29.9375 C 31.5 -28.34375 33.5 -26.101562 34.875 -23.21875 C 36.257812 -20.34375 36.851562 -16.984375 36.65625 -13.140625 L 11.40625 -13.140625 C 11.84375 -10.984375 12.800781 -9.332031 14.28125 -8.1875 C 15.757812 -7.050781 17.539062 -6.484375 19.625 -6.484375 C 21.144531 -6.484375 22.535156 -6.769531 23.796875 -7.34375 C 25.054688 -7.925781 26.0625 -8.738281 26.8125 -9.78125 L 36.0625 -9.78125 C 34.695312 -6.457031 32.554688 -3.851562 29.640625 -1.96875 C 26.722656 -0.09375 23.320312 0.84375 19.4375 0.84375 Z M 11.453125 -18.90625 L 27.84375 -18.90625 C 27.320312 -20.820312 26.347656 -22.328125 24.921875 -23.421875 C 23.503906 -24.523438 21.738281 -25.078125 19.625 -25.078125 C 17.625 -25.078125 15.890625 -24.523438 14.421875 -23.421875 C 12.960938 -22.328125 11.972656 -20.820312 11.453125 -18.90625 Z M 11.453125 -18.90625 "/></g></g></g><g fill="#ffffff" fill-opacity="1"><g transform="translate(282.568761, 203.8505)"><g><path d="M 4.6875 12 L 4.6875 4.140625 L 8.28125 4.140625 C 10.15625 4.140625 11.503906 3.847656 12.328125 3.265625 C 13.148438 2.691406 13.820312 1.625 14.34375 0.0625 L 14.703125 -1.015625 L 0.546875 -31.5 L 10.625 -31.5 L 19.078125 -12 L 21.953125 -20.046875 L 26.15625 -31.5 L 35.9375 -31.5 L 21.90625 3.71875 C 21.0625 5.875 20.097656 7.550781 19.015625 8.75 C 17.941406 9.957031 16.601562 10.800781 15 11.28125 C 13.394531 11.757812 11.375 12 8.9375 12 Z M 4.6875 12 "/></g></g></g><g fill="#ffffff" fill-opacity="1"><g transform="translate(64.347657, 247.64947)"><g><path d="M 5.046875 0 L 5.046875 -42 L 23.8125 -42 C 28.09375 -42 31.492188 -40.976562 34.015625 -38.9375 C 36.535156 -36.894531 37.796875 -34.15625 37.796875 -30.71875 C 37.796875 -28.757812 37.351562 -26.976562 36.46875 -25.375 C 35.59375 -23.78125 34.359375 -22.519531 32.765625 -21.59375 C 34.765625 -20.71875 36.3125 -19.421875 37.40625 -17.703125 C 38.507812 -15.984375 39.0625 -14.003906 39.0625 -11.765625 C 39.0625 -9.398438 38.457031 -7.335938 37.25 -5.578125 C 36.050781 -3.816406 34.382812 -2.445312 32.25 -1.46875 C 30.113281 -0.488281 27.625 0 24.78125 0 Z M 14.453125 -7.5625 L 23.34375 -7.5625 C 25.21875 -7.5625 26.675781 -8 27.71875 -8.875 C 28.757812 -9.757812 29.28125 -11 29.28125 -12.59375 C 29.28125 -14.195312 28.757812 -15.4375 27.71875 -16.3125 C 26.675781 -17.195312 25.21875 -17.640625 23.34375 -17.640625 L 14.453125 -17.640625 Z M 14.453125 -24.90625 L 22.375 -24.90625 C 24.21875 -24.90625 25.628906 -25.320312 26.609375 -26.15625 C 27.585938 -27 28.078125 -28.179688 28.078125 -29.703125 C 28.078125 -31.222656 27.585938 -32.390625 26.609375 -33.203125 C 25.628906 -34.023438 24.21875 -34.4375 22.375 -34.4375 L 14.453125 -34.4375 Z M 14.453125 -24.90625 "/></g></g></g><g fill="#ffffff" fill-opacity="1"><g transform="translate(105.687616, 247.64947)"><g><path d="M 17.09375 0.84375 C 13.019531 0.84375 9.8125 -0.445312 7.46875 -3.03125 C 5.125 -5.613281 3.953125 -9.082031 3.953125 -13.4375 L 3.953125 -31.5 L 13.078125 -31.5 L 13.078125 -14.34375 C 13.078125 -12.019531 13.625 -10.21875 14.71875 -8.9375 C 15.820312 -7.65625 17.335938 -7.015625 19.265625 -7.015625 C 21.335938 -7.015625 22.992188 -7.734375 24.234375 -9.171875 C 25.472656 -10.617188 26.09375 -12.582031 26.09375 -15.0625 L 26.09375 -31.5 L 35.21875 -31.5 L 35.21875 0 L 28.4375 0 L 27.484375 -3.546875 C 26.242188 -2.054688 24.722656 -0.953125 22.921875 -0.234375 C 21.117188 0.484375 19.175781 0.84375 17.09375 0.84375 Z M 17.09375 0.84375 "/></g></g></g><g fill="#ffffff" fill-opacity="1"><g transform="translate(145.467574, 247.64947)"><g><path d="M 16.6875 0.84375 C 13.800781 0.84375 11.285156 0.382812 9.140625 -0.53125 C 7.003906 -1.457031 5.347656 -2.738281 4.171875 -4.375 C 2.992188 -6.019531 2.40625 -7.941406 2.40625 -10.140625 L 11.34375 -10.140625 C 11.382812 -8.859375 11.882812 -7.835938 12.84375 -7.078125 C 13.800781 -6.316406 15.117188 -5.9375 16.796875 -5.9375 C 18.234375 -5.9375 19.351562 -6.207031 20.15625 -6.75 C 20.957031 -7.289062 21.359375 -8.019531 21.359375 -8.9375 C 21.359375 -9.9375 20.816406 -10.765625 19.734375 -11.421875 C 18.660156 -12.085938 16.898438 -12.617188 14.453125 -13.015625 C 10.453125 -13.734375 7.507812 -14.894531 5.625 -16.5 C 3.75 -18.101562 2.8125 -20.203125 2.8125 -22.796875 C 2.8125 -25.878906 3.960938 -28.238281 6.265625 -29.875 C 8.566406 -31.519531 11.835938 -32.34375 16.078125 -32.34375 C 20.273438 -32.34375 23.5625 -31.441406 25.9375 -29.640625 C 28.320312 -27.835938 29.613281 -25.273438 29.8125 -21.953125 L 21.125 -21.953125 C 21.039062 -23.160156 20.546875 -24.09375 19.640625 -24.75 C 18.742188 -25.40625 17.535156 -25.734375 16.015625 -25.734375 C 14.660156 -25.734375 13.59375 -25.472656 12.8125 -24.953125 C 12.03125 -24.441406 11.640625 -23.722656 11.640625 -22.796875 C 11.640625 -21.835938 12.148438 -21.085938 13.171875 -20.546875 C 14.191406 -20.003906 16.039062 -19.457031 18.71875 -18.90625 C 26.476562 -17.34375 30.359375 -14 30.359375 -8.875 C 30.359375 -5.875 29.144531 -3.503906 26.71875 -1.765625 C 24.300781 -0.0234375 20.957031 0.84375 16.6875 0.84375 Z M 16.6875 0.84375 "/></g></g></g><g fill="#ffffff" fill-opacity="1"><g transform="translate(178.287545, 247.64947)"><g><path d="M 4.5625 0 L 4.5625 -31.5 L 13.6875 -31.5 L 13.6875 0 Z M 3.234375 -41.703125 C 3.234375 -43.378906 3.785156 -44.75 4.890625 -45.8125 C 5.992188 -46.875 7.40625 -47.40625 9.125 -47.40625 C 10.882812 -47.40625 12.300781 -46.875 13.375 -45.8125 C 14.457031 -44.75 15 -43.378906 15 -41.703125 C 15 -40.023438 14.457031 -38.65625 13.375 -37.59375 C 12.300781 -36.53125 10.882812 -36 9.125 -36 C 7.40625 -36 5.992188 -36.53125 4.890625 -37.59375 C 3.785156 -38.65625 3.234375 -40.023438 3.234375 -41.703125 Z M 3.234375 -41.703125 "/></g></g></g><g fill="#ffffff" fill-opacity="1"><g transform="translate(196.527526, 247.64947)"><g><path d="M 4.5625 0 L 4.5625 -31.5 L 11.34375 -31.5 L 12.296875 -27.953125 C 13.578125 -29.441406 15.128906 -30.546875 16.953125 -31.265625 C 18.773438 -31.984375 20.722656 -32.34375 22.796875 -32.34375 C 26.921875 -32.34375 30.148438 -31.0625 32.484375 -28.5 C 34.828125 -25.9375 36 -22.476562 36 -18.125 L 36 0 L 26.875 0 L 26.875 -17.15625 C 26.875 -19.476562 26.320312 -21.289062 25.21875 -22.59375 C 24.125 -23.894531 22.597656 -24.546875 20.640625 -24.546875 C 18.554688 -24.546875 16.875 -23.820312 15.59375 -22.375 C 14.320312 -20.9375 13.6875 -18.976562 13.6875 -16.5 L 13.6875 0 Z M 4.5625 0 "/></g></g></g><g fill="#ffffff" fill-opacity="1"><g transform="translate(236.487488, 247.64947)"><g><path d="M 19.4375 0.84375 C 16.082031 0.84375 13.113281 0.144531 10.53125 -1.25 C 7.945312 -2.65625 5.9375 -4.609375 4.5 -7.109375 C 3.0625 -9.609375 2.34375 -12.5 2.34375 -15.78125 C 2.34375 -19.0625 3.070312 -21.941406 4.53125 -24.421875 C 5.988281 -26.898438 8.003906 -28.835938 10.578125 -30.234375 C 13.160156 -31.640625 16.15625 -32.34375 19.5625 -32.34375 C 23.15625 -32.34375 26.257812 -31.539062 28.875 -29.9375 C 31.5 -28.34375 33.5 -26.101562 34.875 -23.21875 C 36.257812 -20.34375 36.851562 -16.984375 36.65625 -13.140625 L 11.40625 -13.140625 C 11.84375 -10.984375 12.800781 -9.332031 14.28125 -8.1875 C 15.757812 -7.050781 17.539062 -6.484375 19.625 -6.484375 C 21.144531 -6.484375 22.535156 -6.769531 23.796875 -7.34375 C 25.054688 -7.925781 26.0625 -8.738281 26.8125 -9.78125 L 36.0625 -9.78125 C 34.695312 -6.457031 32.554688 -3.851562 29.640625 -1.96875 C 26.722656 -0.09375 23.320312 0.84375 19.4375 0.84375 Z M 11.453125 -18.90625 L 27.84375 -18.90625 C 27.320312 -20.820312 26.347656 -22.328125 24.921875 -23.421875 C 23.503906 -24.523438 21.738281 -25.078125 19.625 -25.078125 C 17.625 -25.078125 15.890625 -24.523438 14.421875 -23.421875 C 12.960938 -22.328125 11.972656 -20.820312 11.453125 -18.90625 Z M 11.453125 -18.90625 "/></g></g></g><g fill="#ffffff" fill-opacity="1"><g transform="translate(275.427462, 247.64947)"><g><path d="M 16.6875 0.84375 C 13.800781 0.84375 11.285156 0.382812 9.140625 -0.53125 C 7.003906 -1.457031 5.347656 -2.738281 4.171875 -4.375 C 2.992188 -6.019531 2.40625 -7.941406 2.40625 -10.140625 L 11.34375 -10.140625 C 11.382812 -8.859375 11.882812 -7.835938 12.84375 -7.078125 C 13.800781 -6.316406 15.117188 -5.9375 16.796875 -5.9375 C 18.234375 -5.9375 19.351562 -6.207031 20.15625 -6.75 C 20.957031 -7.289062 21.359375 -8.019531 21.359375 -8.9375 C 21.359375 -9.9375 20.816406 -10.765625 19.734375 -11.421875 C 18.660156 -12.085938 16.898438 -12.617188 14.453125 -13.015625 C 10.453125 -13.734375 7.507812 -14.894531 5.625 -16.5 C 3.75 -18.101562 2.8125 -20.203125 2.8125 -22.796875 C 2.8125 -25.878906 3.960938 -28.238281 6.265625 -29.875 C 8.566406 -31.519531 11.835938 -32.34375 16.078125 -32.34375 C 20.273438 -32.34375 23.5625 -31.441406 25.9375 -29.640625 C 28.320312 -27.835938 29.613281 -25.273438 29.8125 -21.953125 L 21.125 -21.953125 C 21.039062 -23.160156 20.546875 -24.09375 19.640625 -24.75 C 18.742188 -25.40625 17.535156 -25.734375 16.015625 -25.734375 C 14.660156 -25.734375 13.59375 -25.472656 12.8125 -24.953125 C 12.03125 -24.441406 11.640625 -23.722656 11.640625 -22.796875 C 11.640625 -21.835938 12.148438 -21.085938 13.171875 -20.546875 C 14.191406 -20.003906 16.039062 -19.457031 18.71875 -18.90625 C 26.476562 -17.34375 30.359375 -14 30.359375 -8.875 C 30.359375 -5.875 29.144531 -3.503906 26.71875 -1.765625 C 24.300781 -0.0234375 20.957031 0.84375 16.6875 0.84375 Z M 16.6875 0.84375 "/></g></g></g><g fill="#ffffff" fill-opacity="1"><g transform="translate(308.247422, 247.64947)"><g><path d="M 16.6875 0.84375 C 13.800781 0.84375 11.285156 0.382812 9.140625 -0.53125 C 7.003906 -1.457031 5.347656 -2.738281 4.171875 -4.375 C 2.992188 -6.019531 2.40625 -7.941406 2.40625 -10.140625 L 11.34375 -10.140625 C 11.382812 -8.859375 11.882812 -7.835938 12.84375 -7.078125 C 13.800781 -6.316406 15.117188 -5.9375 16.796875 -5.9375 C 18.234375 -5.9375 19.351562 -6.207031 20.15625 -6.75 C 20.957031 -7.289062 21.359375 -8.019531 21.359375 -8.9375 C 21.359375 -9.9375 20.816406 -10.765625 19.734375 -11.421875 C 18.660156 -12.085938 16.898438 -12.617188 14.453125 -13.015625 C 10.453125 -13.734375 7.507812 -14.894531 5.625 -16.5 C 3.75 -18.101562 2.8125 -20.203125 2.8125 -22.796875 C 2.8125 -25.878906 3.960938 -28.238281 6.265625 -29.875 C 8.566406 -31.519531 11.835938 -32.34375 16.078125 -32.34375 C 20.273438 -32.34375 23.5625 -31.441406 25.9375 -29.640625 C 28.320312 -27.835938 29.613281 -25.273438 29.8125 -21.953125 L 21.125 -21.953125 C 21.039062 -23.160156 20.546875 -24.09375 19.640625 -24.75 C 18.742188 -25.40625 17.535156 -25.734375 16.015625 -25.734375 C 14.660156 -25.734375 13.59375 -25.472656 12.8125 -24.953125 C 12.03125 -24.441406 11.640625 -23.722656 11.640625 -22.796875 C 11.640625 -21.835938 12.148438 -21.085938 13.171875 -20.546875 C 14.191406 -20.003906 16.039062 -19.457031 18.71875 -18.90625 C 26.476562 -17.34375 30.359375 -14 30.359375 -8.875 C 30.359375 -5.875 29.144531 -3.503906 26.71875 -1.765625 C 24.300781 -0.0234375 20.957031 0.84375 16.6875 0.84375 Z M 16.6875 0.84375 "/></g></g></g><g clip-path="url(#bdf61698a0)"><path fill="#000000" d="M 200.265625 200.261719 C 200.265625 207.296875 194.5625 213 187.527344 213 C 180.496094 213 174.792969 207.296875 174.792969 200.261719 C 174.792969 193.230469 180.496094 187.527344 187.527344 187.527344 C 194.5625 187.527344 200.265625 193.230469 200.265625 200.261719 Z M 200.265625 200.261719 " fill-opacity="1" fill-rule="nonzero"/></g><g clip-path="url(#d6f31d8cf6)"><path fill="#000000" d="M 200.265625 217.457031 C 200.265625 224.492188 194.5625 230.195312 187.527344 230.195312 C 180.496094 230.195312 174.792969 224.492188 174.792969 217.457031 C 174.792969 210.421875 180.496094 204.71875 187.527344 204.71875 C 194.5625 204.71875 200.265625 210.421875 200.265625 217.457031 Z M 200.265625 217.457031 " fill-opacity="1" fill-rule="nonzero"/></g></svg>